<svg width="34" height="35" viewBox="0 0 34 35" fill="none" xmlns="http://www.w3.org/2000/svg">
<g clip-path="url(#clip0_225_63)">
<ellipse cx="17" cy="18.0953" rx="17" ry="16.1905" fill="white"/>
<path d="M22.5623 29.7692C26.2602 29.7692 29.2579 26.9142 29.2579 23.3924C29.2579 19.8706 26.2602 17.0156 22.5623 17.0156C18.8644 17.0156 15.8667 19.8706 15.8667 23.3924C15.8667 26.9142 18.8644 29.7692 22.5623 29.7692Z" fill="#97CF26"/>
<path d="M9.97629 26.3613C11.6976 26.3613 13.093 25.0324 13.093 23.3931C13.093 21.7537 11.6976 20.4248 9.97629 20.4248C8.255 20.4248 6.85962 21.7537 6.85962 23.3931C6.85962 25.0324 8.255 26.3613 9.97629 26.3613Z" fill="#A169F7"/>
<path d="M22.5623 15.5101C24.9425 15.5101 26.872 13.6725 26.872 11.4057C26.872 9.13888 24.9425 7.30127 22.5623 7.30127C20.1822 7.30127 18.2527 9.13888 18.2527 11.4057C18.2527 13.6725 20.1822 15.5101 22.5623 15.5101Z" fill="#FF6163"/>
<path d="M9.97626 16.6467C13.0153 16.6467 15.4789 14.3004 15.4789 11.4061C15.4789 8.51183 13.0153 6.16553 9.97626 6.16553C6.93725 6.16553 4.47363 8.51183 4.47363 11.4061C4.47363 14.3004 6.93725 16.6467 9.97626 16.6467Z" fill="#00AAFF"/>
</g>
<defs>
<clipPath id="clip0_225_63">
<rect width="34" height="34" fill="white" transform="translate(0 0.285645)"/>
</clipPath>
</defs>
</svg>
