<svg viewBox="0 0 26 26" fill="none"
    xmlns="http://www.w3.org/2000/svg">
    <circle cx="13" cy="13" r="13" fill="#1F1F1F"/>
    <circle cx="13" cy="13" r="11" fill="white"/>
    <path d="M9.88419 15.4246C13.4494 15.4058 16.0342 15.3542 17.6385 15.2698C17.5728 15.6545 17.5306 16.0532 17.5118 16.466C17.5025 16.8695 17.4978 17.3808 17.4978 18H6.56293C6.63798 16.1799 6.67551 14.477 6.67551 12.8914C6.67551 11.3059 6.63798 9.60302 6.56293 7.78289H17.4978V10.3301H9.88419V11.6812C10.3345 11.6905 11.0007 11.6952 11.8826 11.6952C13.3743 11.6952 14.9177 11.6671 16.5126 11.6108V14.0314C14.9177 13.9751 13.3743 13.9469 11.8826 13.9469C11.0007 13.9469 10.3345 13.9516 9.88419 13.961V15.4246Z" fill="#1F1F1F"/>
    <path d="M20.118 18.1407C19.7052 18.1407 19.3534 17.9953 19.0625 17.7045C18.7717 17.4042 18.6263 17.0477 18.6263 16.6349C18.6263 16.2221 18.7717 15.8703 19.0625 15.5794C19.3534 15.2886 19.7052 15.1432 20.118 15.1432C20.5214 15.1432 20.8686 15.2933 21.1594 15.5935C21.4596 15.8843 21.6098 16.2315 21.6098 16.6349C21.6098 17.0477 21.4596 17.4042 21.1594 17.7045C20.8686 17.9953 20.5214 18.1407 20.118 18.1407Z" fill="#0DEDB3"/>
</svg>
