<svg width="34" height="35" viewBox="0 0 34 35" fill="none" xmlns="http://www.w3.org/2000/svg">
<g clip-path="url(#clip0_225_52)">
<path d="M23.8712 0.285645H10.1288C4.54375 0.285645 0 4.82939 0 10.4144V24.1569C0 29.7419 4.54375 34.2856 10.1288 34.2856H23.8712C29.4562 34.2856 34 29.7419 34 24.1569V10.4144C33.9999 4.82939 29.4562 0.285645 23.8712 0.285645ZM30.5796 24.1569C30.5796 27.8618 27.5761 30.8652 23.8712 30.8652H10.1288C6.42388 30.8652 3.4204 27.8618 3.4204 24.1569V10.4144C3.4204 6.70946 6.42388 3.70604 10.1288 3.70604H23.8712C27.5761 3.70604 30.5796 6.70946 30.5796 10.4144V24.1569Z" fill="url(#paint0_linear_225_52)"/>
<path d="M16.9999 8.49219C12.1511 8.49219 8.2063 12.437 8.2063 17.2857C8.2063 22.1345 12.1511 26.0793 16.9999 26.0793C21.8487 26.0793 25.7935 22.1345 25.7935 17.2857C25.7935 12.4369 21.8487 8.49219 16.9999 8.49219ZM16.9999 22.659C14.0323 22.659 11.6267 20.2534 11.6267 17.2858C11.6267 14.3182 14.0324 11.9126 16.9999 11.9126C19.9675 11.9126 22.3731 14.3182 22.3731 17.2858C22.3731 20.2533 19.9674 22.659 16.9999 22.659Z" fill="url(#paint1_linear_225_52)"/>
<path d="M25.8104 10.6653C26.9741 10.6653 27.9175 9.72194 27.9175 8.55824C27.9175 7.39454 26.9741 6.45117 25.8104 6.45117C24.6467 6.45117 23.7034 7.39454 23.7034 8.55824C23.7034 9.72194 24.6467 10.6653 25.8104 10.6653Z" fill="url(#paint2_linear_225_52)"/>
</g>
<defs>
<linearGradient id="paint0_linear_225_52" x1="17" y1="34.1866" x2="17" y2="0.549716" gradientUnits="userSpaceOnUse">
<stop stop-color="#E09B3D"/>
<stop offset="0.3" stop-color="#C74C4D"/>
<stop offset="0.6" stop-color="#C21975"/>
<stop offset="1" stop-color="#7024C4"/>
</linearGradient>
<linearGradient id="paint1_linear_225_52" x1="16.9999" y1="34.1867" x2="16.9999" y2="0.54987" gradientUnits="userSpaceOnUse">
<stop stop-color="#E09B3D"/>
<stop offset="0.3" stop-color="#C74C4D"/>
<stop offset="0.6" stop-color="#C21975"/>
<stop offset="1" stop-color="#7024C4"/>
</linearGradient>
<linearGradient id="paint2_linear_225_52" x1="25.8104" y1="34.1866" x2="25.8104" y2="0.549779" gradientUnits="userSpaceOnUse">
<stop stop-color="#E09B3D"/>
<stop offset="0.3" stop-color="#C74C4D"/>
<stop offset="0.6" stop-color="#C21975"/>
<stop offset="1" stop-color="#7024C4"/>
</linearGradient>
<clipPath id="clip0_225_52">
<rect width="34" height="34" fill="white" transform="translate(0 0.285645)"/>
</clipPath>
</defs>
</svg>
