<svg viewBox="0 0 20 20" fill="none"
    xmlns="http://www.w3.org/2000/svg">
    <g clip-path="url(#clip0_149_56)">
        <path d="M9.93103 1.9263C12.5845 1.9263 12.8987 1.93794 13.9422 1.98449C14.9121 2.02716 15.4358 2.19009 15.7849 2.32587C16.2465 2.50432 16.5802 2.72156 16.9254 3.06682C17.2746 3.41596 17.4879 3.7457 17.6664 4.20734C17.8022 4.55647 17.9651 5.08406 18.0078 6.05001C18.0543 7.09742 18.0659 7.41165 18.0659 10.0612C18.0659 12.7147 18.0543 13.0289 18.0078 14.0724C17.9651 15.0422 17.8022 15.566 17.6664 15.9151C17.4879 16.3767 17.2707 16.7104 16.9254 17.0556C16.5763 17.4047 16.2465 17.6181 15.7849 17.7966C15.4358 17.9323 14.9082 18.0953 13.9422 18.1379C12.8948 18.1845 12.5806 18.1961 9.93103 18.1961C7.27758 18.1961 6.96336 18.1845 5.91983 18.1379C4.95 18.0953 4.42629 17.9323 4.07715 17.7966C3.61552 17.6181 3.2819 17.4009 2.93664 17.0556C2.5875 16.7065 2.37414 16.3767 2.19569 15.9151C2.05991 15.566 1.89698 15.0384 1.85431 14.0724C1.80776 13.025 1.79612 12.7108 1.79612 10.0612C1.79612 7.40777 1.80776 7.09354 1.85431 6.05001C1.89698 5.08018 2.05991 4.55647 2.19569 4.20734C2.37414 3.7457 2.59138 3.41208 2.93664 3.06682C3.28578 2.71768 3.61552 2.50432 4.07715 2.32587C4.42629 2.19009 4.95388 2.02716 5.91983 1.98449C6.96336 1.93794 7.27758 1.9263 9.93103 1.9263ZM9.93103 0.137939C7.23491 0.137939 6.89741 0.149577 5.83836 0.196129C4.78319 0.242681 4.05776 0.41337 3.42931 0.657767C2.77371 0.913801 2.21897 1.2513 1.6681 1.80604C1.11336 2.3569 0.775862 2.91165 0.519827 3.56337C0.275431 4.1957 0.104741 4.91725 0.0581896 5.97242C0.0116379 7.03535 0 7.37285 0 10.069C0 12.7651 0.0116379 13.1026 0.0581896 14.1616C0.104741 15.2168 0.275431 15.9422 0.519827 16.5707C0.775862 17.2263 1.11336 17.781 1.6681 18.3319C2.21897 18.8828 2.77371 19.2241 3.42543 19.4763C4.05776 19.7207 4.77931 19.8914 5.83448 19.9379C6.89353 19.9845 7.23103 19.9961 9.92715 19.9961C12.6233 19.9961 12.9608 19.9845 14.0198 19.9379C15.075 19.8914 15.8004 19.7207 16.4289 19.4763C17.0806 19.2241 17.6353 18.8828 18.1862 18.3319C18.7371 17.781 19.0784 17.2263 19.3306 16.5746C19.575 15.9422 19.7457 15.2207 19.7922 14.1655C19.8388 13.1065 19.8504 12.769 19.8504 10.0729C19.8504 7.37673 19.8388 7.03923 19.7922 5.98018C19.7457 4.92501 19.575 4.19958 19.3306 3.57113C19.0862 2.91165 18.7487 2.3569 18.194 1.80604C17.6431 1.25518 17.0884 0.913801 16.4366 0.661646C15.8043 0.41725 15.0828 0.24656 14.0276 0.200008C12.9647 0.149577 12.6272 0.137939 9.93103 0.137939Z" fill="#1F1F1F"/>
        <path d="M9.93113 4.96765C7.11475 4.96765 4.82983 7.25256 4.82983 10.0689C4.82983 12.8853 7.11475 15.1702 9.93113 15.1702C12.7475 15.1702 15.0324 12.8853 15.0324 10.0689C15.0324 7.25256 12.7475 4.96765 9.93113 4.96765ZM9.93113 13.378C8.10397 13.378 6.62207 11.8961 6.62207 10.0689C6.62207 8.24179 8.10397 6.75989 9.93113 6.75989C11.7583 6.75989 13.2402 8.24179 13.2402 10.0689C13.2402 11.8961 11.7583 13.378 9.93113 13.378Z" fill="#1F1F1F"/>
        <path d="M16.4251 4.7659C16.4251 5.42538 15.8898 5.95685 15.2342 5.95685C14.5747 5.95685 14.0432 5.4215 14.0432 4.7659C14.0432 4.10642 14.5786 3.57495 15.2342 3.57495C15.8898 3.57495 16.4251 4.1103 16.4251 4.7659Z" fill="#1F1F1F"/>
    </g>
    <defs>
        <clipPath id="clip0_149_56">
            <rect width="19.8621" height="19.8621" fill="white" transform="translate(0 0.137939)"/>
        </clipPath>
    </defs>
</svg>
