<svg width="35" height="34" viewBox="0 0 35 34" fill="none" xmlns="http://www.w3.org/2000/svg">
<g clip-path="url(#clip0_225_57)">
<circle cx="18.4212" cy="16.1497" r="14.45" fill="white"/>
<path fill-rule="evenodd" clip-rule="evenodd" d="M13.249 8.6352C12.9194 7.84577 12.6694 7.81575 12.1701 7.79556C12.0001 7.78573 11.8107 7.77591 11.6006 7.77591C10.9508 7.77591 10.2716 7.96583 9.86178 8.38552C9.36241 8.89525 8.12327 10.0845 8.12327 12.5229C8.12327 14.9616 9.90163 17.3201 10.1415 17.6502C10.3914 17.9796 13.6087 23.0568 18.6043 25.126C22.5108 26.745 23.67 26.5949 24.5591 26.4052C25.858 26.1255 27.4865 25.1656 27.8964 24.0067C28.306 22.8472 28.306 21.8577 28.1859 21.6479C28.0661 21.4381 27.7362 21.3185 27.2368 21.0683C26.7375 20.8184 24.3094 19.6191 23.8499 19.4592C23.4002 19.2894 22.9706 19.3495 22.6312 19.8292C22.1515 20.4988 21.6821 21.1785 21.3022 21.5881C21.0026 21.908 20.5128 21.9481 20.1032 21.7781C19.5536 21.5486 18.0151 21.0083 16.1167 19.3194C14.6478 18.0104 13.6488 16.3816 13.3593 15.8918C13.0695 15.3922 13.3292 15.1021 13.559 14.8325C13.809 14.5225 14.0486 14.3028 14.2983 14.0128C14.5482 13.723 14.6879 13.5732 14.8478 13.2332C15.0178 12.9035 14.8978 12.5635 14.778 12.3136C14.6579 12.0631 13.6589 9.62439 13.249 8.6352ZM17.995 0C8.62317 0 1 7.6253 1 16.9997C1 20.7174 2.19903 24.1655 4.23717 26.9639L2.11881 33.2802L8.65319 31.1918C11.3408 32.9707 14.5479 34 18.005 34C27.3768 34 35 26.3742 35 17.0003C35 7.62583 27.3768 0.00053125 18.005 0.00053125H17.9952V0H17.995Z" fill="#67C15E"/>
</g>
<defs>
<clipPath id="clip0_225_57">
<rect width="34" height="34" fill="white" transform="translate(0.571289)"/>
</clipPath>
</defs>
</svg>
